{
  "accessors": [
    {
      "bufferView": 2,
      "componentType": 5126,
      "count": 3858,
      "max": [
        1.732166051864624,
        0.0322830006480217,
        2.363478899002075
      ],
      "min": [
        -1.7624939680099487,
        -0.4389660060405731,
        -0.16625399887561798
      ],
      "type": "VEC3"
    },
    {
      "bufferView": 2,
      "byteOffset": 46296,
      "componentType": 5126,
      "count": 3858,
      "max": [
        0.9980360865592957,
        0.9998832941055298,
        0.9992965459823608
      ],
      "min": [
        -0.9989501237869263,
        -0.9998832941055298,
        -0.9985179901123047
      ],
      "type": "VEC3"
    },
    {
      "bufferView": 1,
      "componentType": 5126,
      "count": 3858,
      "max": [
        0.9805480241775513,
        0.8445709943771362
      ],
      "min": [
        0,
        0
      ],
      "type": "VEC2"
    },
    {
      "bufferView": 0,
      "componentType": 5125,
      "count": 8472,
      "type": "SCALAR"
    }
  ],
  "asset": {
    "extras": {
      "author": "lime.ball.animations (https://sketchfab.com/lime.ball.animations.official)",
      "license": "CC-BY-4.0 (http://creativecommons.org/licenses/by/4.0/)",
      "source": "https://sketchfab.com/3d-models/ram-corsair-vengeance-ddr4-rgb-pro-ee5c6e6b2e524d63a7043365e73a2420",
      "title": "RAM Corsair Vengeance DDR4 RGB Pro"
    },
    "generator": "Sketchfab-17.1.0",
    "version": "2.0"
  },
  "bufferViews": [
    {
      "buffer": 0,
      "byteLength": 33888,
      "name": "floatBufferViews",
      "target": 34963,
      "byteOffset": 0
    },
    {
      "buffer": 0,
      "byteLength": 30864,
      "byteOffset": 33888,
      "byteStride": 8,
      "name": "floatBufferViews",
      "target": 34962
    },
    {
      "buffer": 0,
      "byteLength": 92592,
      "byteOffset": 64752,
      "byteStride": 12,
      "name": "floatBufferViews",
      "target": 34962
    }
  ],
  "buffers": [
    {
      "uri": "ram_corsair_vengeance_ddr4_rgb_pro_data.bin",
      "byteLength": 157344
    }
  ],
  "images": [
    {
      "uri": "ram_corsair_vengeance_ddr4_rgb_pro_img0.png"
    }
  ],
  "materials": [
    {
      "doubleSided": true,
      "name": "Material.003",
      "pbrMetallicRoughness": {
        "baseColorTexture": {
          "index": 0
        },
        "roughnessFactor": 0.6
      }
    }
  ],
  "meshes": [
    {
      "name": "Object_0",
      "primitives": [
        {
          "attributes": {
            "NORMAL": 1,
            "POSITION": 0,
            "TEXCOORD_0": 2
          },
          "indices": 3,
          "material": 0,
          "mode": 4
        }
      ]
    }
  ],
  "nodes": [
    {
      "children": [
        1
      ],
      "matrix": [
        0.10036591440439224,
        0,
        0,
        0,
        0,
        2.2285709811862784e-17,
        -0.10036591440439224,
        0,
        0,
        0.10036591440439224,
        2.2285709811862784e-17,
        0,
        0,
        0,
        0,
        1
      ],
      "name": "Sketchfab_model"
    },
    {
      "children": [
        2
      ],
      "name": "2c5b6323bea946b2aeb256cd9d1050c7.obj.cleaner.materialmerger.gles"
    },
    {
      "mesh": 0,
      "name": "Object_2"
    }
  ],
  "samplers": [
    {
      "magFilter": 9729,
      "minFilter": 9987,
      "wrapS": 10497,
      "wrapT": 10497
    }
  ],
  "scene": 0,
  "scenes": [
    {
      "name": "Sketchfab_Scene",
      "nodes": [
        0
      ]
    }
  ],
  "textures": [
    {
      "sampler": 0,
      "source": 0
    }
  ]
}