{
  "accessors": [
    {
      "bufferView": 2,
      "componentType": 5126,
      "count": 27740,
      "max": [
        1.15315842628479,
        2.335784912109375,
        1.8031474351882935
      ],
      "min": [
        -1.15315842628479,
        -2.338214635848999,
        -1.5974305868148804
      ],
      "type": "VEC3"
    },
    {
      "bufferView": 2,
      "byteOffset": 332880,
      "componentType": 5126,
      "count": 27740,
      "max": [
        0.9997866153717041,
        0.9997878074645996,
        1
      ],
      "min": [
        -0.9997872114181519,
        -0.9997878074645996,
        -0.7471139430999756
      ],
      "type": "VEC3"
    },
    {
      "bufferView": 1,
      "componentType": 5126,
      "count": 27740,
      "max": [
        1,
        1
      ],
      "min": [
        0,
        0
      ],
      "type": "VEC2"
    },
    {
      "bufferView": 1,
      "byteOffset": 221920,
      "componentType": 5126,
      "count": 27740,
      "max": [
        1,
        1
      ],
      "min": [
        0,
        0
      ],
      "type": "VEC2"
    },
    {
      "bufferView": 0,
      "componentType": 5125,
      "count": 105480,
      "type": "SCALAR"
    },
    {
      "bufferView": 2,
      "byteOffset": 665760,
      "componentType": 5126,
      "count": 8328,
      "max": [
        0.6152105927467346,
        1.8915928602218628,
        1.488142967224121
      ],
      "min": [
        -0.6152098774909973,
        -0.6152104735374451,
        1.1986585855484009
      ],
      "type": "VEC3"
    },
    {
      "bufferView": 2,
      "byteOffset": 765696,
      "componentType": 5126,
      "count": 8328,
      "max": [
        1,
        1,
        0.999942421913147
      ],
      "min": [
        -1,
        -1,
        -0.9997806549072266
      ],
      "type": "VEC3"
    },
    {
      "bufferView": 1,
      "byteOffset": 443840,
      "componentType": 5126,
      "count": 8328,
      "max": [
        1,
        1
      ],
      "min": [
        0,
        0.016064388677477837
      ],
      "type": "VEC2"
    },
    {
      "bufferView": 1,
      "byteOffset": 510464,
      "componentType": 5126,
      "count": 8328,
      "max": [
        1.1152098178863525,
        1.1152105331420898
      ],
      "min": [
        -0.1152106523513794,
        -0.11521005630493164
      ],
      "type": "VEC2"
    },
    {
      "bufferView": 0,
      "byteOffset": 421920,
      "componentType": 5125,
      "count": 31098,
      "type": "SCALAR"
    },
    {
      "bufferView": 2,
      "byteOffset": 865632,
      "componentType": 5126,
      "count": 3401,
      "max": [
        0.8921288847923279,
        0.8921286463737488,
        1.4647246599197388
      ],
      "min": [
        -0.892128586769104,
        -0.8921288847923279,
        1.1986585855484009
      ],
      "type": "VEC3"
    },
    {
      "bufferView": 2,
      "byteOffset": 906444,
      "componentType": 5126,
      "count": 3401,
      "max": [
        0.7803772687911987,
        0.7803772687911987,
        0.999942421913147
      ],
      "min": [
        -0.7803772687911987,
        -0.7803772687911987,
        0.6253030300140381
      ],
      "type": "VEC3"
    },
    {
      "bufferView": 1,
      "byteOffset": 577088,
      "componentType": 5126,
      "count": 3401,
      "max": [
        1.0002150535583496,
        0.5000000596046448
      ],
      "min": [
        -0.00021508208010345697,
        0.07132011651992798
      ],
      "type": "VEC2"
    },
    {
      "bufferView": 1,
      "byteOffset": 604296,
      "componentType": 5126,
      "count": 3401,
      "max": [
        1.3921282291412354,
        1.3921289443969727
      ],
      "min": [
        -0.3921293020248413,
        -0.39212852716445923
      ],
      "type": "VEC2"
    },
    {
      "bufferView": 0,
      "byteOffset": 546312,
      "componentType": 5125,
      "count": 15738,
      "type": "SCALAR"
    },
    {
      "bufferView": 2,
      "byteOffset": 947256,
      "componentType": 5126,
      "count": 128,
      "max": [
        0.07471176981925964,
        -1.6387284994125366,
        1.6339272260665894
      ],
      "min": [
        -0.07761736959218979,
        -1.7910577058792114,
        1.6339272260665894
      ],
      "type": "VEC3"
    },
    {
      "bufferView": 2,
      "byteOffset": 948792,
      "componentType": 5126,
      "count": 128,
      "max": [
        0.020966727286577225,
        0.020966727286577225,
        0.9997810125350952
      ],
      "min": [
        -0.020966727286577225,
        -0.020966727286577225,
        0.9997801780700684
      ],
      "type": "VEC3"
    },
    {
      "bufferView": 1,
      "byteOffset": 631504,
      "componentType": 5126,
      "count": 128,
      "max": [
        0.40065237879753113,
        0.4006524980068207
      ],
      "min": [
        0.09934758394956589,
        0.09934745728969574
      ],
      "type": "VEC2"
    },
    {
      "bufferView": 1,
      "byteOffset": 632528,
      "componentType": 5126,
      "count": 128,
      "max": [
        0.40065237879753113,
        0.4006524980068207
      ],
      "min": [
        0.09934758394956589,
        0.09934745728969574
      ],
      "type": "VEC2"
    },
    {
      "bufferView": 0,
      "byteOffset": 609264,
      "componentType": 5125,
      "count": 378,
      "type": "SCALAR"
    }
  ],
  "asset": {
    "extras": {
      "author": "ecation (https://sketchfab.com/ecation)",
      "license": "CC-BY-4.0 (http://creativecommons.org/licenses/by/4.0/)",
      "source": "https://sketchfab.com/3d-models/computer-speaker-fca95e60a46b4277a027a898c6b3a961",
      "title": "Computer speaker"
    },
    "generator": "Sketchfab-12.65.0",
    "version": "2.0"
  },
  "bufferViews": [
    {
      "buffer": 0,
      "byteLength": 610776,
      "name": "floatBufferViews",
      "target": 34963,
      "byteOffset": 0
    },
    {
      "buffer": 0,
      "byteLength": 633552,
      "byteOffset": 610776,
      "byteStride": 8,
      "name": "floatBufferViews",
      "target": 34962
    },
    {
      "buffer": 0,
      "byteLength": 950328,
      "byteOffset": 1244328,
      "byteStride": 12,
      "name": "floatBufferViews",
      "target": 34962
    }
  ],
  "buffers": [
    {
      "uri": "computer_speaker (1)_data.bin",
      "byteLength": 2194656
    }
  ],
  "materials": [
    {
      "doubleSided": true,
      "name": "Material.001",
      "pbrMetallicRoughness": {
        "baseColorFactor": [
          0.0219793,
          0.0219793,
          0.0219793,
          1
        ],
        "metallicFactor": 0,
        "roughnessFactor": 0.124113
      }
    },
    {
      "doubleSided": true,
      "name": "Brushed_Steel_Procedural",
      "pbrMetallicRoughness": {
        "baseColorFactor": [
          0.172258,
          0.172258,
          0.172258,
          1
        ]
      }
    },
    {
      "doubleSided": true,
      "name": "Rubber"
    },
    {
      "doubleSided": true,
      "emissiveFactor": [
        0.294667,
        0.10048,
        0.496924
      ],
      "name": "Material",
      "pbrMetallicRoughness": {
        "baseColorFactor": [
          0.187706,
          0.286029,
          0.8,
          1
        ],
        "metallicFactor": 0,
        "roughnessFactor": 0.5
      }
    }
  ],
  "meshes": [
    {
      "name": "Object_0",
      "primitives": [
        {
          "attributes": {
            "NORMAL": 1,
            "POSITION": 0,
            "TEXCOORD_0": 2,
            "TEXCOORD_1": 3
          },
          "indices": 4,
          "material": 0,
          "mode": 4
        }
      ]
    },
    {
      "name": "Object_1",
      "primitives": [
        {
          "attributes": {
            "NORMAL": 6,
            "POSITION": 5,
            "TEXCOORD_0": 7,
            "TEXCOORD_1": 8
          },
          "indices": 9,
          "material": 1,
          "mode": 4
        }
      ]
    },
    {
      "name": "Object_2",
      "primitives": [
        {
          "attributes": {
            "NORMAL": 11,
            "POSITION": 10,
            "TEXCOORD_0": 12,
            "TEXCOORD_1": 13
          },
          "indices": 14,
          "material": 2,
          "mode": 4
        }
      ]
    },
    {
      "name": "Object_3",
      "primitives": [
        {
          "attributes": {
            "NORMAL": 16,
            "POSITION": 15,
            "TEXCOORD_0": 17,
            "TEXCOORD_1": 18
          },
          "indices": 19,
          "material": 3,
          "mode": 4
        }
      ]
    }
  ],
  "nodes": [
    {
      "children": [
        1
      ],
      "matrix": [
        1,
        0,
        0,
        0,
        0,
        2.220446049250313e-16,
        -1,
        0,
        0,
        1,
        2.220446049250313e-16,
        0,
        0,
        0,
        0,
        1
      ],
      "name": "Sketchfab_model"
    },
    {
      "children": [
        2
      ],
      "name": "root"
    },
    {
      "children": [
        3
      ],
      "matrix": [
        1,
        0,
        0,
        0,
        0,
        2.220446049250313e-16,
        1,
        0,
        0,
        -1,
        2.220446049250313e-16,
        0,
        0,
        0,
        0,
        1
      ],
      "name": "GLTF_SceneRootNode"
    },
    {
      "children": [
        4,
        5,
        6,
        7
      ],
      "name": "Cube_2"
    },
    {
      "mesh": 0,
      "name": "Object_4"
    },
    {
      "mesh": 1,
      "name": "Object_5"
    },
    {
      "mesh": 2,
      "name": "Object_6"
    },
    {
      "mesh": 3,
      "name": "Object_7"
    }
  ],
  "scene": 0,
  "scenes": [
    {
      "name": "Sketchfab_Scene",
      "nodes": [
        0
      ]
    }
  ]
}