{
  "accessors": [
    {
      "bufferView": 3,
      "componentType": 5126,
      "count": 7486,
      "max": [
        0.17140159010887146,
        0.1641233265399933,
        0.08779960125684738
      ],
      "min": [
        -0.17137987911701202,
        -0.19359712302684784,
        -0.08786587417125702
      ],
      "type": "VEC3"
    },
    {
      "bufferView": 3,
      "byteOffset": 89832,
      "componentType": 5126,
      "count": 7486,
      "max": [
        1,
        0.9999999403953552,
        0.9999999403953552
      ],
      "min": [
        -1,
        -0.9999999403953552,
        -1
      ],
      "type": "VEC3"
    },
    {
      "bufferView": 2,
      "componentType": 5126,
      "count": 7486,
      "max": [
        1,
        1
      ],
      "min": [
        0,
        0
      ],
      "type": "VEC2"
    },
    {
      "bufferView": 1,
      "componentType": 5125,
      "count": 23292,
      "type": "SCALAR"
    },
    {
      "bufferView": 3,
      "byteOffset": 179664,
      "componentType": 5126,
      "count": 960,
      "max": [
        0.16668236255645752,
        0.035656608641147614,
        0.06188341975212097
      ],
      "min": [
        -0.16665278375148773,
        -0.14179286360740662,
        -0.06194552779197693
      ],
      "type": "VEC3"
    },
    {
      "bufferView": 3,
      "byteOffset": 191184,
      "componentType": 5126,
      "count": 960,
      "max": [
        1,
        0.9999999403953552,
        0.9999999403953552
      ],
      "min": [
        -1,
        -0.9999999403953552,
        -0.9999999403953552
      ],
      "type": "VEC3"
    },
    {
      "bufferView": 2,
      "byteOffset": 59888,
      "componentType": 5126,
      "count": 960,
      "max": [
        1,
        1
      ],
      "min": [
        0,
        0
      ],
      "type": "VEC2"
    },
    {
      "bufferView": 1,
      "byteOffset": 93168,
      "componentType": 5125,
      "count": 1872,
      "type": "SCALAR"
    },
    {
      "bufferView": 5,
      "componentType": 5126,
      "count": 4,
      "max": [
        1,
        0,
        0,
        0,
        0,
        1,
        0,
        0,
        0,
        0.0003448317584116012,
        1,
        0,
        0.15798720717430115,
        0.08995102345943451,
        0,
        1
      ],
      "min": [
        1,
        0,
        0,
        0,
        0,
        0.9999999403953552,
        -0.0003448317584116012,
        0,
        0,
        0,
        0.9999999403953552,
        0,
        -0.1580171436071396,
        -0.15525391697883606,
        -6.778675043506155e-8,
        1
      ],
      "type": "MAT4"
    },
    {
      "bufferView": 0,
      "componentType": 5123,
      "count": 7486,
      "type": "VEC4"
    },
    {
      "bufferView": 4,
      "componentType": 5126,
      "count": 7486,
      "max": [
        1,
        0,
        0,
        0
      ],
      "min": [
        1,
        0,
        0,
        0
      ],
      "type": "VEC4"
    },
    {
      "bufferView": 0,
      "byteOffset": 59888,
      "componentType": 5123,
      "count": 960,
      "type": "VEC4"
    },
    {
      "bufferView": 4,
      "byteOffset": 119776,
      "componentType": 5126,
      "count": 960,
      "max": [
        1,
        0,
        0,
        0
      ],
      "min": [
        1,
        0,
        0,
        0
      ],
      "type": "VEC4"
    }
  ],
  "asset": {
    "extras": {
      "author": "QuickDriftVR (https://sketchfab.com/QuickDriftVR)",
      "license": "CC-BY-4.0 (http://creativecommons.org/licenses/by/4.0/)",
      "source": "https://sketchfab.com/3d-models/headphones-2f54d1c5d3c943bfadc72ab656587c90",
      "title": "Headphones"
    },
    "generator": "Sketchfab-15.97.0",
    "version": "2.0"
  },
  "bufferViews": [
    {
      "buffer": 0,
      "byteLength": 67568,
      "byteStride": 8,
      "name": "shortBufferViews",
      "target": 34962,
      "byteOffset": 0
    },
    {
      "buffer": 0,
      "byteLength": 100656,
      "byteOffset": 67568,
      "name": "floatBufferViews",
      "target": 34963
    },
    {
      "buffer": 0,
      "byteLength": 67568,
      "byteOffset": 168224,
      "byteStride": 8,
      "name": "floatBufferViews",
      "target": 34962
    },
    {
      "buffer": 0,
      "byteLength": 202704,
      "byteOffset": 235792,
      "byteStride": 12,
      "name": "floatBufferViews",
      "target": 34962
    },
    {
      "buffer": 0,
      "byteLength": 135136,
      "byteOffset": 438496,
      "byteStride": 16,
      "name": "floatBufferViews",
      "target": 34962
    },
    {
      "buffer": 0,
      "byteLength": 256,
      "byteOffset": 573632,
      "name": "floatBufferViews"
    }
  ],
  "buffers": [
    {
      "uri": "headphones_data.bin",
      "byteLength": 573888
    }
  ],
  "materials": [
    {
      "doubleSided": true,
      "name": "black",
      "pbrMetallicRoughness": {
        "baseColorFactor": [
          0,
          0,
          0,
          1
        ],
        "metallicFactor": 0,
        "roughnessFactor": 0.6
      }
    },
    {
      "doubleSided": true,
      "name": "white",
      "pbrMetallicRoughness": {
        "metallicFactor": 0,
        "roughnessFactor": 0.6
      }
    }
  ],
  "meshes": [
    {
      "name": "Collection_smd_black_0",
      "primitives": [
        {
          "attributes": {
            "JOINTS_0": 9,
            "NORMAL": 1,
            "POSITION": 0,
            "TEXCOORD_0": 2,
            "WEIGHTS_0": 10
          },
          "indices": 3,
          "material": 0,
          "mode": 4
        }
      ]
    },
    {
      "name": "Collection_smd_white_0",
      "primitives": [
        {
          "attributes": {
            "JOINTS_0": 11,
            "NORMAL": 5,
            "POSITION": 4,
            "TEXCOORD_0": 6,
            "WEIGHTS_0": 12
          },
          "indices": 7,
          "material": 1,
          "mode": 4
        }
      ]
    }
  ],
  "nodes": [
    {
      "children": [
        1
      ],
      "matrix": [
        1,
        0,
        0,
        0,
        0,
        2.220446049250313e-16,
        -1,
        0,
        0,
        1,
        2.220446049250313e-16,
        0,
        0,
        0,
        0,
        1
      ],
      "name": "Sketchfab_model"
    },
    {
      "children": [
        2
      ],
      "matrix": [
        0.009999999776482582,
        0,
        0,
        0,
        0,
        0,
        0.009999999776482582,
        0,
        0,
        -0.009999999776482582,
        0,
        0,
        0,
        0,
        0,
        1
      ],
      "name": "e06f59bf8b484b99b9b283d1cab43125.fbx"
    },
    {
      "children": [
        3
      ],
      "name": "RootNode"
    },
    {
      "children": [
        4
      ],
      "name": "Headphones"
    },
    {
      "children": [
        5
      ],
      "matrix": [
        100,
        0,
        0,
        0,
        0,
        0.034514567042154276,
        -99.99999404372313,
        0,
        0,
        99.99999404372313,
        0.034514567042154276,
        0,
        0,
        0,
        0,
        1
      ],
      "name": "headphones_ARM"
    },
    {
      "children": [
        6,
        8,
        9,
        7
      ],
      "name": "Object_5"
    },
    {
      "children": [
        10
      ],
      "name": "_rootJoint"
    },
    {
      "matrix": [
        100,
        0,
        0,
        0,
        0,
        0.03451456704212899,
        -99.99999404372318,
        0,
        0,
        99.99999404372318,
        0.03451456704212899,
        0,
        0,
        -1.7763568394002505e-15,
        -1.734723475976807e-18,
        1
      ],
      "name": "Object_7" },
    
 { "mesh": 0,
      "name": "Object_8",
      "skin": 0
    },
    {
      "mesh": 1,
      "name": "Object_9",
      "skin": 0
    },
    {
      "children": [
        11,
        13
      ],
      "name": "band_2_00",
      "rotation": [
        0.7069846391677856,
        0,
        0,
        0.7072288990020752
      ],
      "translation": [
        -0.00004040504791191779,
        -1.9050000688025648e-8,
        0.15525391697883606
      ]
    },
    {
      "children": [
        12
      ],
      "name": "shell_L_2_01",
      "rotation": [
        -2.6469779601696886e-23,
        0,
        0,
        1
      ],
      "translation": [
        -0.15794679522514343,
        -0.24520491063594818,
        1.7763568394002505e-15
      ]
    },
    {
      "matrix": [
        1,
        0,
        0,
        0,
        0,
        1,
        -5.29395592033938e-23,
        0,
        0,
        5.29395592033938e-23,
        1,
        0,
        0,
        0.019050000235438347,
        0,
        1
      ],
      "name": "shell_L_2_end"
    },
    {
      "children": [
        14
      ],
      "name": "shell_R_2_02",
      "rotation": [
        -2.6469779601696886e-23,
        0,
        0,
        1
      ],
      "translation": [
        0.1580575406551361,
        -0.24520321190357208,
        -3.552713678800501e-15
      ]
    },
    {
      "matrix": [
        1,
        0,
        0,
        0,
        0,
        1,
        -5.29395592033938e-23,
        0,
        0,
        5.29395592033938e-23,
        1,
        0,
        0,
        0.019050000235438347,
        0,
        1
      ],
      "name": "shell_R_2_end"
    }
  ],
  "scene": 0,
  "scenes": [
    {
      "name": "Sketchfab_Scene",
      "nodes": [
        0
      ]
    }
  ],
  "skins": [
    {
      "inverseBindMatrices": 8,
      "joints": [
        6,
        10,
        11,
        13
      ],
      "skeleton": 6
    }
  ]
}