{
  "accessors": [
    {
      "bufferView": 2,
      "componentType": 5126,
      "count": 65532,
      "max": [
        0.06499999761581421,
        0.10678203403949738,
        0.026248322799801826
      ],
      "min": [
        -0.06499999761581421,
        1.2965979361379849e-20,
        -0.026249999180436134
      ],
      "type": "VEC3"
    },
    {
      "bufferView": 2,
      "byteOffset": 786384,
      "componentType": 5126,
      "count": 65532,
      "max": [
        1,
        1,
        1
      ],
      "min": [
        -1,
        -1,
        -1
      ],
      "type": "VEC3"
    },
    {
      "bufferView": 1,
      "componentType": 5126,
      "count": 65532,
      "max": [
        0.9970674514770508,
        0.9947140216827393
      ],
      "min": [
        0.0097850002348423,
        0.005741000175476074
      ],
      "type": "VEC2"
    },
    {
      "bufferView": 1,
      "byteOffset": 524256,
      "componentType": 5126,
      "count": 65532,
      "max": [
        0.9970674514770508,
        0.9947140216827393
      ],
      "min": [
        0.0097850002348423,
        0.005741000175476074
      ],
      "type": "VEC2"
    },
    {
      "bufferView": 1,
      "byteOffset": 1048512,
      "componentType": 5126,
      "count": 65532,
      "max": [
        0.9970674514770508,
        0.9947140216827393
      ],
      "min": [
        0.0097850002348423,
        0.005741000175476074
      ],
      "type": "VEC2"
    },
    {
      "bufferView": 1,
      "byteOffset": 1572768,
      "componentType": 5126,
      "count": 65532,
      "max": [
        0.9970674514770508,
        0.9947140216827393
      ],
      "min": [
        0.0097850002348423,
        0.005741000175476074
      ],
      "type": "VEC2"
    },
    {
      "bufferView": 1,
      "byteOffset": 2097024,
      "componentType": 5126,
      "count": 65532,
      "max": [
        0.9970674514770508,
        0.9947140216827393
      ],
      "min": [
        0.0097850002348423,
        0.005741000175476074
      ],
      "type": "VEC2"
    },
    {
      "bufferView": 0,
      "componentType": 5125,
      "count": 319185,
      "type": "SCALAR"
    },
    {
      "bufferView": 2,
      "byteOffset": 1572768,
      "componentType": 5126,
      "count": 7674,
      "max": [
        0.02403925359249115,
        0.0528792068362236,
        0.022145899012684822
      ],
      "min": [
        -0.024039246141910553,
        0.013767319731414318,
        -0.026249999180436134
      ],
      "type": "VEC3"
    },
    {
      "bufferView": 2,
      "byteOffset": 1664856,
      "componentType": 5126,
      "count": 7674,
      "max": [
        1,
        1,
        1
      ],
      "min": [
        -1,
        -1,
        -1
      ],
      "type": "VEC3"
    },
    {
      "bufferView": 1,
      "byteOffset": 2621280,
      "componentType": 5126,
      "count": 7674,
      "max": [
        0.9231662154197693,
        0.31462907791137695
      ],
      "min": [
        0.0097850002348423,
        0.010812640190124512
      ],
      "type": "VEC2"
    },
    {
      "bufferView": 1,
      "byteOffset": 2682672,
      "componentType": 5126,
      "count": 7674,
      "max": [
        0.9231662154197693,
        0.31462907791137695
      ],
      "min": [
        0.0097850002348423,
        0.010812640190124512
      ],
      "type": "VEC2"
    },
    {
      "bufferView": 1,
      "byteOffset": 2744064,
      "componentType": 5126,
      "count": 7674,
      "max": [
        0.9231662154197693,
        0.31462907791137695
      ],
      "min": [
        0.0097850002348423,
        0.010812640190124512
      ],
      "type": "VEC2"
    },
    {
      "bufferView": 1,
      "byteOffset": 2805456,
      "componentType": 5126,
      "count": 7674,
      "max": [
        0.9231662154197693,
        0.31462907791137695
      ],
      "min": [
        0.0097850002348423,
        0.010812640190124512
      ],
      "type": "VEC2"
    },
    {
      "bufferView": 1,
      "byteOffset": 2866848,
      "componentType": 5126,
      "count": 7674,
      "max": [
        0.9231662154197693,
        0.31462907791137695
      ],
      "min": [
        0.0097850002348423,
        0.010812640190124512
      ],
      "type": "VEC2"
    },
    {
      "bufferView": 0,
      "byteOffset": 1276740,
      "componentType": 5125,
      "count": 40173,
      "type": "SCALAR"
    },
    {
      "bufferView": 2,
      "byteOffset": 1756944,
      "componentType": 5126,
      "count": 104,
      "max": [
        0.021539457142353058,
        0.10282634943723679,
        0.02547217719256878
      ],
      "min": [
        -0.021539069712162018,
        0.05945396050810814,
        0.025469530373811722
      ],
      "type": "VEC3"
    },
    {
      "bufferView": 2,
      "byteOffset": 1758192,
      "componentType": 5126,
      "count": 104,
      "max": [
        0.00019999999494757503,
        0.00009999999747378752,
        1
      ],
      "min": [
        -0.00019999999494757503,
        -0.00019999999494757503,
        1
      ],
      "type": "VEC3"
    },
    {
      "bufferView": 1,
      "byteOffset": 2928240,
      "componentType": 5126,
      "count": 104,
      "max": [
        0.995959997177124,
        0.06784224510192871
      ],
      "min": [
        0.9372029900550842,
        0.009157001972198486
      ],
      "type": "VEC2"
    },
    {
      "bufferView": 1,
      "byteOffset": 2929072,
      "componentType": 5126,
      "count": 104,
      "max": [
        0.995959997177124,
        0.06784224510192871
      ],
      "min": [
        0.9372029900550842,
        0.009157001972198486
      ],
      "type": "VEC2"
    },
    {
      "bufferView": 1,
      "byteOffset": 2929904,
      "componentType": 5126,
      "count": 104,
      "max": [
        0.995959997177124,
        0.06784224510192871
      ],
      "min": [
        0.9372029900550842,
        0.009157001972198486
      ],
      "type": "VEC2"
    },
    {
      "bufferView": 1,
      "byteOffset": 2930736,
      "componentType": 5126,
      "count": 104,
      "max": [
        0.995959997177124,
        0.06784224510192871
      ],
      "min": [
        0.9372029900550842,
        0.009157001972198486
      ],
      "type": "VEC2"
    },
    {
      "bufferView": 1,
      "byteOffset": 2931568,
      "componentType": 5126,
      "count": 104,
      "max": [
        0.995959997177124,
        0.06784224510192871
      ],
      "min": [
        0.9372029900550842,
        0.009157001972198486
      ],
      "type": "VEC2"
    },
    {
      "bufferView": 0,
      "byteOffset": 1437432,
      "componentType": 5125,
      "count": 216,
      "type": "SCALAR"
    }
  ],
  "asset": {
    "extras": {
      "author": "vmmaniac (https://sketchfab.com/vmmaniac)",
      "license": "CC-BY-4.0 (http://creativecommons.org/licenses/by/4.0/)",
      "source": "https://sketchfab.com/3d-models/log-itech-webcam-f1c4b4d4405f41bab99e33c9095e3cb7",
      "title": "Log Itech webcam"
    },
    "generator": "Sketchfab-16.67.0",
    "version": "2.0"
  },
  "bufferViews": [
    {
      "buffer": 0,
      "byteLength": 1438296,
      "name": "floatBufferViews",
      "target": 34963,
      "byteOffset": 0
    },
    {
      "buffer": 0,
      "byteLength": 2932400,
      "byteOffset": 1438296,
      "byteStride": 8,
      "name": "floatBufferViews",
      "target": 34962
    },
    {
      "buffer": 0,
      "byteLength": 1759440,
      "byteOffset": 4370696,
      "byteStride": 12,
      "name": "floatBufferViews",
      "target": 34962
    }
  ],
  "buffers": [
    {
      "uri": "log_itech_webcam_data.bin",
      "byteLength": 6130136
    }
  ],
  "extensionsUsed": [
    "KHR_materials_specular",
    "KHR_materials_transmission"
  ],
  "images": [
    {
      "uri": "log_itech_webcam_img0.jpg"
    },
    {
      "uri": "log_itech_webcam_img1.png"
    },
    {
      "uri": "log_itech_webcam_img2.png"
    },
    {
      "uri": "log_itech_webcam_img3.png"
    },
    {
      "uri": "log_itech_webcam_img4.png"
    }
  ],
  "materials": [
    {
      "doubleSided": true,
      "extensions": {
        "KHR_materials_specular": {
          "specularColorFactor": [
            1,
            1,
            1
          ],
          "specularFactor": 0.8669077791456948
        }
      },
      "name": "ASSET_MAT_MR.002",
      "occlusionTexture": {
        "index": 1,
        "texCoord": 2
      },
      "pbrMetallicRoughness": {
        "baseColorFactor": [
          0.8028362053731023,
          0.8028362053731023,
          0.8028362053731023,
          1
        ],
        "baseColorTexture": {
          "index": 0
        },
        "metallicRoughnessTexture": {
          "index": 1,
          "texCoord": 1
        }
      }
    },
    {
      "alphaMode": "BLEND",
      "doubleSided": true,
      "extensions": {
        "KHR_materials_specular": {
          "specularColorFactor": [
            1,
            1,
            1
          ],
          "specularFactor": 0.3718092545392981
        },
        "KHR_materials_transmission": {
          "transmissionFactor": 1,
          "transmissionTexture": {
            "index": 4
          }
        }
      },
      "name": "ASSET_MAT_MR.003",
      "occlusionTexture": {
        "index": 3
      },
      "pbrMetallicRoughness": {
        "baseColorTexture": {
          "index": 2
        },
        "metallicRoughnessTexture": {
          "index": 3
        }
      }
    }
  ],
  "meshes": [
    {
      "name": "Object_0",
      "primitives": [
        {
          "attributes": {
            "NORMAL": 1,
            "POSITION": 0,
            "TEXCOORD_0": 2,
            "TEXCOORD_1": 3,
            "TEXCOORD_2": 4,
            "TEXCOORD_3": 5,
            "TEXCOORD_4": 6
          },
          "indices": 7,
          "material": 0,
          "mode": 4
        }
      ]
    },
    {
      "name": "Object_1",
      "primitives": [
        {
          "attributes": {
            "NORMAL": 9,
            "POSITION": 8,
            "TEXCOORD_0": 10,
            "TEXCOORD_1": 11,
            "TEXCOORD_2": 12,
            "TEXCOORD_3": 13,
            "TEXCOORD_4": 14
          },
          "indices": 15,
          "material": 0,
          "mode": 4
        }
      ]
    },
    {
      "name": "Object_2",
      "primitives": [
        {
          "attributes": {
            "NORMAL": 17,
            "POSITION": 16,
            "TEXCOORD_0": 18,
            "TEXCOORD_1": 19,
            "TEXCOORD_2": 20,
            "TEXCOORD_3": 21,
            "TEXCOORD_4": 22
          },
          "indices": 23,
          "material": 1,
          "mode": 4
        }
      ]
    }
  ],
  "nodes": [
    {
      "children": [
        1
      ],
      "matrix": [
        1,
        0,
        0,
        0,
        0,
        2.220446049250313e-16,
        -1,
        0,
        0,
        1,
        2.220446049250313e-16,
        0,
        0,
        0,
        0,
        1
      ],
      "name": "Sketchfab_model"
    },
    {
      "children": [
        2
      ],
      "name": "root"
    },
    {
      "children": [
        3
      ],
      "matrix": [
        1,
        0,
        0,
        0,
        0,
        2.220446049250313e-16,
        1,
        0,
        0,
        -1,
        2.220446049250313e-16,
        0,
        0,
        0,
        0,
        1
      ],
      "name": "GLTF_SceneRootNode"
    },
    {
      "children": [
        4
      ],
      "name": "ScaleFactorRootNode_1"
    },
    {
      "children": [
        5,
        6,
        7
      ],
      "name": "ASSET_0"
    },
    {
      "mesh": 0,
      "name": "Object_5"
    },
    {
      "mesh": 1,
      "name": "Object_6"
    },
    {
      "mesh": 2,
      "name": "Object_7"
    }
  ],
  "samplers": [
    {
      "magFilter": 9729,
      "minFilter": 9987,
      "wrapS": 10497,
      "wrapT": 10497
    }
  ],
  "scene": 0,
  "scenes": [
    {
      "name": "Sketchfab_Scene",
      "nodes": [
        0
      ]
    }
  ],
  "textures": [
    {
      "sampler": 0,
      "source": 0
    },
    {
      "sampler": 0,
      "source": 1
    },
    {
      "sampler": 0,
      "source": 2
    },
    {
      "sampler": 0,
      "source": 3
    },
    {
      "sampler": 0,
      "source": 4
    }
  ]
}