{
  "accessors": [
    {
      "bufferView": 2,
      "componentType": 5126,
      "count": 2538,
      "max": [
        2.1664373874664307,
        0.6002190113067627,
        0.009376093745231628
      ],
      "min": [
        -2.165832281112671,
        -0.6008182764053345,
        0.00023435428738594055
      ],
      "type": "VEC3"
    },
    {
      "bufferView": 2,
      "byteOffset": 30456,
      "componentType": 5126,
      "count": 2538,
      "max": [
        1,
        1,
        1
      ],
      "min": [
        -1,
        -1,
        0
      ],
      "type": "VEC3"
    },
    {
      "bufferView": 1,
      "componentType": 5126,
      "count": 2538,
      "max": [
        0.9309565424919128,
        0.6800377368927002
      ],
      "min": [
        0.06726019084453583,
        0.3198050558567047
      ],
      "type": "VEC2"
    },
    {
      "bufferView": 0,
      "componentType": 5125,
      "count": 4563,
      "type": "SCALAR"
    },
    {
      "bufferView": 2,
      "byteOffset": 60912,
      "componentType": 5126,
      "count": 532,
      "max": [
        2.1664373874664307,
        0.6002190113067627,
        0.00023435428738594055
      ],
      "min": [
        -2.165832281112671,
        -0.6008182764053345,
        0.00023435428738594055
      ],
      "type": "VEC3"
    },
    {
      "bufferView": 2,
      "byteOffset": 67296,
      "componentType": 5126,
      "count": 532,
      "max": [
        3.227707684461123e-11,
        0,
        -1
      ],
      "min": [
        -6.595638098183532e-12,
        0,
        -1
      ],
      "type": "VEC3"
    },
    {
      "bufferView": 3,
      "componentType": 5126,
      "count": 532,
      "max": [
        0.9909628033638,
        0.6760197281837463,
        8.498025200198711e-12,
        1
      ],
      "min": [
        -1,
        -0.9647185206413269,
        -3.227708031405818e-11,
        -1
      ],
      "type": "VEC4"
    },
    {
      "bufferView": 1,
      "byteOffset": 20304,
      "componentType": 5126,
      "count": 532,
      "max": [
        0.9997515678405762,
        1.0004782676696777
      ],
      "min": [
        0.0010957972845062613,
        0.002873140387237072
      ],
      "type": "VEC2"
    },
    {
      "bufferView": 0,
      "byteOffset": 18252,
      "componentType": 5125,
      "count": 1551,
      "type": "SCALAR"
    }
  ],
  "asset": {
    "extras": {
      "author": "lime.ball.animations (https://sketchfab.com/lime.ball.animations.official)",
      "license": "CC-BY-4.0 (http://creativecommons.org/licenses/by/4.0/)",
      "source": "https://sketchfab.com/3d-models/m2-nvme-ssd-samsung-990-pro-1tb-3d-model-41b7bfda7eab40f8b13330913fd66fc2",
      "title": "M.2 NVME SSD Samsung 990 Pro 1TB 3D model"
    },
    "generator": "Sketchfab-16.75.0",
    "version": "2.0"
  },
  "bufferViews": [
    {
      "buffer": 0,
      "byteLength": 24456,
      "name": "floatBufferViews",
      "target": 34963,
      "byteOffset": 0
    },
    {
      "buffer": 0,
      "byteLength": 24560,
      "byteOffset": 24456,
      "byteStride": 8,
      "name": "floatBufferViews",
      "target": 34962
    },
    {
      "buffer": 0,
      "byteLength": 73680,
      "byteOffset": 49016,
      "byteStride": 12,
      "name": "floatBufferViews",
      "target": 34962
    },
    {
      "buffer": 0,
      "byteLength": 8512,
      "byteOffset": 122696,
      "byteStride": 16,
      "name": "floatBufferViews",
      "target": 34962
    }
  ],
  "buffers": [
    {
      "uri": "m.2_nvme_ssd_samsung_990_pro_1tb_3d_model_data.bin",
      "byteLength": 131208
    }
  ],
  "images": [
    {
      "uri": "m.2_nvme_ssd_samsung_990_pro_1tb_3d_model_img0.png"
    },
    {
      "uri": "m.2_nvme_ssd_samsung_990_pro_1tb_3d_model_img1.png"
    },
    {
      "uri": "m.2_nvme_ssd_samsung_990_pro_1tb_3d_model_img2.png"
    },
    {
      "uri": "m.2_nvme_ssd_samsung_990_pro_1tb_3d_model_img3.png"
    }
  ],
  "materials": [
    {
      "doubleSided": true,
      "name": "Material",
      "pbrMetallicRoughness": {
        "baseColorTexture": {
          "index": 0
        },
        "metallicFactor": 0,
        "roughnessFactor": 0.8211145618000169
      }
    },
    {
      "doubleSided": true,
      "name": "Material.001",
      "normalTexture": {
        "index": 3
      },
      "pbrMetallicRoughness": {
        "baseColorTexture": {
          "index": 1
        },
        "metallicRoughnessTexture": {
          "index": 2
        }
      }
    }
  ],
  "meshes": [
    {
      "name": "Plane_Material_0",
      "primitives": [
        {
          "attributes": {
            "NORMAL": 1,
            "POSITION": 0,
            "TEXCOORD_0": 2
          },
          "indices": 3,
          "material": 0,
          "mode": 4
        }
      ]
    },
    {
      "name": "Plane_Material.001_0",
      "primitives": [
        {
          "attributes": {
            "NORMAL": 5,
            "POSITION": 4,
            "TANGENT": 6,
            "TEXCOORD_0": 7
          },
          "indices": 8,
          "material": 1,
          "mode": 4
        }
      ]
    }
  ],
  "nodes": [
    {
      "children": [
        1
      ],
      "matrix": [
        1,
        0,
        0,
        0,
        0,
        2.220446049250313e-16,
        -1,
        0,
        0,
        1,
        2.220446049250313e-16,
        0,
        0,
        0,
        0,
        1
      ],
      "name": "Sketchfab_model"
    },
    {
      "children": [
        2
      ],
      "matrix": [
        0.009999999776482582,
        0,
        0,
        0,
        0,
        0,
        0.009999999776482582,
        0,
        0,
        -0.009999999776482582,
        0,
        0,
        0,
        0,
        0,
        1
      ],
      "name": "20a3a19d7ab347baa434e8e0c6451014.fbx"
    },
    {
      "children": [
        3
      ],
      "name": "RootNode"
    },
    {
      "children": [
        4,
        5
      ],
      "matrix": [
        100,
        0,
        0,
        0,
        0,
        -0.00001629206793918314,
        -99.99999999999868,
        0,
        0,
        99.99999999999868,
        -0.00001629206793918314,
        0,
        0,
        0,
        0,
        1
      ],
      "name": "Plane"
    },
    {
      "mesh": 0,
      "name": "Plane_Material_0"
    },
    {
      "mesh": 1,
      "name": "Plane_Material.001_0"
    }
  ],
  "samplers": [
    {
      "magFilter": 9729,
      "minFilter": 9987,
      "wrapS": 10497,
      "wrapT": 10497
    }
  ],
  "scene": 0,
  "scenes": [
    {
      "name": "Sketchfab_Scene",
      "nodes": [
        0
      ]
    }
  ],
  "textures": [
    {
      "sampler": 0,
      "source": 0
    },
    {
      "sampler": 0,
      "source": 1
    },
    {
      "sampler": 0,
      "source": 2
    },
    {
      "sampler": 0,
      "source": 3
    }
  ]
}